<svg xmlns="http://www.w3.org/2000/svg" xmlns:xlink="http://www.w3.org/1999/xlink" version="1.1" viewBox="0 0 1088 615"><g fill="none" fill-rule="evenodd" stroke-width="1"><text fill="#86A5BA" font-family="'Source Sans Pro', sans-serif" font-size="18" font-weight="600"><tspan x="933.778" y="459">STATIC ASSETS</tspan></text><g><g transform="translate(1002, 326)"><use fill="#526B78" fill-opacity=".1" fill-rule="evenodd" xlink:href="#path-1"/><rect width="84" height="84" x="-2" y="-2" stroke="#526B78" stroke-width="4" rx="3"/></g><text fill="#FFF" font-family="'Source Sans Pro', sans-serif" font-size="22" font-weight="500" transform="translate(1002, 326)"><tspan x="18.891" y="46.71">.png</tspan></text></g><g><g transform="translate(1002, 214)"><use fill="#526B78" fill-opacity=".1" fill-rule="evenodd" xlink:href="#path-2"/><rect width="84" height="84" x="-2" y="-2" stroke="#526B78" stroke-width="4" rx="3"/></g><text fill="#FFF" font-family="'Source Sans Pro', sans-serif" font-size="22" font-weight="500" transform="translate(1002, 214)"><tspan x="22.532" y="46.71">.css</tspan></text></g><g><g transform="translate(894, 326)"><use fill="#526B78" fill-opacity=".1" fill-rule="evenodd" xlink:href="#path-3"/><rect width="84" height="84" x="-2" y="-2" stroke="#526B78" stroke-width="4" rx="3"/></g><text fill="#FFF" font-family="'Source Sans Pro', sans-serif" font-size="22" font-weight="500" transform="translate(894, 326)"><tspan x="21.817" y="46.71">.jpg</tspan></text></g><g><g transform="translate(894, 214)"><use fill="#526B78" fill-opacity=".1" fill-rule="evenodd" xlink:href="#path-4"/><rect width="84" height="84" x="-2" y="-2" stroke="#526B78" stroke-width="4" rx="3"/></g><text fill="#FFF" font-family="'Source Sans Pro', sans-serif" font-size="22" font-weight="500" transform="translate(894, 214)"><tspan x="29" y="46.71">.js</tspan></text></g><g stroke="#7E8C94" stroke-width="4"><path stroke-dasharray="7" d="M499.558824,86.52 C499.558824,86.52 484.852941,81.02 439.908088,109.436667 C394.963235,137.853333 380.992647,164.436667 380.992647,164.436667" transform="translate(342, 225)"/><path stroke-dasharray="7" d="M499.558824,86.0616667 C499.558824,86.0616667 484.852941,91.5616667 439.908088,63.145 C394.963235,34.7283333 380.992647,8.145 380.992647,8.145" transform="translate(342, 225)"/><path stroke-dasharray="6" d="M0.477941176,170.395 C0.477941176,170.395 169.382939,98.895 447.847936,98.895" transform="translate(342, 225)"/><path stroke-dasharray="6" d="M0.477941176,72.395 C0.477941176,72.395 169.382939,0.895 447.847936,0.895" transform="translate(342, 225) translate(224.162939, 36.645000) scale(1, -1) translate(-224.162939, -36.645000)"/></g><text fill="#86A5BA" font-family="'Source Sans Pro', sans-serif" font-size="18" font-weight="600"><tspan x="24.934" y="562">MODULES WITH DEPENDENCIES</tspan></text><g><g transform="translate(228, 335)"><use fill="#526B78" fill-opacity=".1" fill-rule="evenodd" xlink:href="#path-5"/><rect width="66" height="66" x="-2" y="-2" stroke="#526B78" stroke-width="4" rx="3"/></g><text fill="#FFF" font-family="'Source Sans Pro', sans-serif" font-size="22" font-weight="500" transform="translate(228, 335)"><tspan x="12.817" y="38">.jpg</tspan></text></g><g><g transform="translate(228, 223)"><use fill="#526B78" fill-opacity=".1" fill-rule="evenodd" xlink:href="#path-6"/><rect width="66" height="66" x="-2" y="-2" stroke="#526B78" stroke-width="4" rx="3"/></g><text fill="#FFF" font-family="'Source Sans Pro', sans-serif" font-size="22" font-weight="500" transform="translate(228, 223)"><tspan x="9.891" y="38">.png</tspan></text></g><g transform="translate(302, 414.500000) scale(1, -1) translate(-302, -414.500000) translate(182, 404)"><rect width="2" height="6" x="0" y="0" fill="#BBDBEC"/><rect width="2" height="12" x="76" y="6" fill="#BBDBEC"/><rect width="2" height="5.65" x="74.305" y="1.88" fill="#BBDBEC" transform="translate(75.304690, 4.704683) rotate(-45) translate(-75.304690, -4.704683)"/><rect width="72" height="2" x="2" y="2" fill="#BBDBEC"/><polyline stroke="#BBDBEC" stroke-width="2" points="80 12 77 20.8 74 12"/></g><g><g transform="translate(116, 391)"><use fill="#526B78" fill-opacity=".1" fill-rule="evenodd" xlink:href="#path-7"/><rect width="66" height="66" x="-2" y="-2" stroke="#526B78" stroke-width="4" rx="3"/></g><text fill="#FFF" font-family="'Source Sans Pro', sans-serif" font-size="22" font-weight="500" transform="translate(116, 391)"><tspan x="8.076" y="38">.sass</tspan></text></g><g><g transform="translate(116, 279)"><use fill="#526B78" fill-opacity=".1" fill-rule="evenodd" xlink:href="#path-8"/><rect width="66" height="66" x="-2" y="-2" stroke="#526B78" stroke-width="4" rx="3"/></g><text fill="#FFF" font-family="'Source Sans Pro', sans-serif" font-size="22" font-weight="500" transform="translate(116, 279)"><tspan x="8.076" y="38">.sass</tspan></text></g><g transform="translate(182, 201)"><rect width="2" height="6" x="0" y="0" fill="#BBDBEC"/><rect width="2" height="12" x="76" y="113" fill="#BBDBEC"/><rect width="2" height="5.65" x="74.305" y="108.88" fill="#BBDBEC" transform="translate(75.304690, 111.704683) rotate(-45) translate(-75.304690, -111.704683)"/><rect width="48" height="2" x="26" y="109" fill="#BBDBEC"/><rect width="2" height="5.65" x="23.705" y="105.48" fill="#BBDBEC" transform="translate(24.704683, 108.304690) rotate(-45) translate(-24.704683, -108.304690)"/><rect width="2" height="101" x="22" y="6" fill="#BBDBEC"/><rect width="2" height="5.65" x="20.305" y="1.88" fill="#BBDBEC" transform="translate(21.304690, 4.704683) rotate(-45) translate(-21.304690, -4.704683)"/><rect width="18" height="2" x="2" y="2" fill="#BBDBEC"/><polyline stroke="#BBDBEC" stroke-width="2" points="80 118 77 126.8 74 118"/></g><g transform="translate(182, 189)"><rect width="2" height="6" x="0" y="0" fill="#BBDBEC"/><rect width="2" height="19" x="76" y="6" fill="#BBDBEC"/><rect width="2" height="5.65" x="74.305" y="1.88" fill="#BBDBEC" transform="translate(75.304690, 4.704683) rotate(-45) translate(-75.304690, -4.704683)"/><rect width="72" height="2" x="2" y="2" fill="#BBDBEC"/><polyline stroke="#BBDBEC" stroke-width="2" points="80 18 77 26.8 74 18"/></g><g><g transform="translate(116, 167)"><use fill="#526B78" fill-opacity=".1" fill-rule="evenodd" xlink:href="#path-9"/><rect width="66" height="66" x="-2" y="-2" stroke="#526B78" stroke-width="4" rx="3"/></g><text fill="#FFF" font-family="'Source Sans Pro', sans-serif" font-size="22" font-weight="500" transform="translate(116, 167)"><tspan x="20" y="38">.js</tspan></text></g><g transform="translate(110, 470.500000) scale(1, -1) translate(-190, -470.500000) translate(150, 460)"><rect width="2" height="6" x="0" y="0" fill="#BBDBEC"/><rect width="2" height="12" x="76" y="6" fill="#BBDBEC"/><rect width="2" height="5.65" x="74.305" y="1.88" fill="#BBDBEC" transform="translate(75.304690, 4.704683) rotate(-45) translate(-75.304690, -4.704683)"/><rect width="72" height="2" x="2" y="2" fill="#BBDBEC"/><polyline stroke="#BBDBEC" stroke-width="2" points="80 12 77 20.8 74 12"/></g><g><g transform="translate(4, 447)"><use fill="#526B78" fill-opacity=".1" fill-rule="evenodd" xlink:href="#path-10"/><rect width="66" height="66" x="-2" y="-2" stroke="#526B78" stroke-width="4" rx="3"/></g><text fill="#FFF" font-family="'Source Sans Pro', sans-serif" font-size="22" font-weight="500" transform="translate(4, 447)"><tspan x="8.076" y="38">.sass</tspan></text></g><g transform="translate(70, 363)"><rect width="2" height="6" x="0" y="0" fill="#BBDBEC"/><rect width="2" height="12" x="76" y="6" fill="#BBDBEC"/><rect width="2" height="5.65" x="74.305" y="1.88" fill="#BBDBEC" transform="translate(75.304690, 4.704683) rotate(-45) translate(-75.304690, -4.704683)"/><rect width="72" height="2" x="2" y="2" fill="#BBDBEC"/><polyline stroke="#BBDBEC" stroke-width="2" points="80 12 77 20.8 74 12"/></g><g><g transform="translate(4, 335)"><use fill="#526B78" fill-opacity=".1" fill-rule="evenodd" xlink:href="#path-11"/><rect width="66" height="66" x="-2" y="-2" stroke="#526B78" stroke-width="4" rx="3"/></g><text fill="#FFF" font-family="'Source Sans Pro', sans-serif" font-size="22" font-weight="500" transform="translate(4, 335)"><tspan x="15.38" y="38">.cjs</tspan></text></g><g transform="translate(38, 307)"><rect width="6" height="2" x="0" y="22" fill="#BBDBEC"/><rect width="2" height="16" x="2" y="6" fill="#BBDBEC"/><rect width="2" height="5.65" x="3.705" y="1.88" fill="#BBDBEC" transform="translate(4.704683, 4.704683) rotate(45) translate(-4.704683, -4.704683)"/><rect width="62" height="2" x="6" y="2" fill="#BBDBEC"/><polyline stroke="#BBDBEC" stroke-width="2" points="69.4 -1.4 66.4 7.4 63.4 -1.4" transform="translate(66.400000, 3) rotate(270) translate(-66.400000, -3)"/></g><g transform="translate(26, 289)"><polyline stroke="#BBDBEC" stroke-width="2" points="6 30 3 38.8 0 30"/><rect width="2" height="39" x="2" y="0" fill="#BBDBEC"/><rect width="6" height="2" x="0" y="0" fill="#BBDBEC"/></g><g transform="translate(110, 246.500000) scale(1, -1) translate(-190, -246.500000) translate(150, 236)"><rect width="2" height="6" x="0" y="0" fill="#BBDBEC"/><rect width="2" height="12" x="76" y="6" fill="#BBDBEC"/><rect width="2" height="5.65" x="74.305" y="1.88" fill="#BBDBEC" transform="translate(75.304690, 4.704683) rotate(-45) translate(-75.304690, -4.704683)"/><rect width="72" height="2" x="2" y="2" fill="#BBDBEC"/><polyline stroke="#BBDBEC" stroke-width="2" points="80 12 77 20.8 74 12"/></g><g><g transform="translate(4, 223)"><use fill="#526B78" fill-opacity=".1" fill-rule="evenodd" xlink:href="#path-12"/><rect width="66" height="66" x="-2" y="-2" stroke="#526B78" stroke-width="4" rx="3"/></g><text fill="#FFF" font-family="'Source Sans Pro', sans-serif" font-size="22" font-weight="500" transform="translate(4, 223)"><tspan x="10.947" y="38">.hbs</tspan></text></g><g transform="translate(32, 177)"><polyline stroke="#BBDBEC" stroke-width="2" points="6 30 3 38.8 0 30"/><rect width="2" height="39" x="2" y="0" fill="#BBDBEC"/><rect width="6" height="2" x="0" y="0" fill="#BBDBEC"/></g><g><g transform="translate(4, 111)"><use fill="#526B78" fill-opacity=".1" fill-rule="evenodd" xlink:href="#path-13"/><rect width="66" height="66" x="-2" y="-2" stroke="#526B78" stroke-width="4" rx="3"/></g><text fill="#FFF" font-family="'Source Sans Pro', sans-serif" font-size="22" font-weight="500" transform="translate(4, 111)"><tspan x="20" y="38">.js</tspan></text></g></g></svg>