<svg xmlns="http://www.w3.org/2000/svg" id="Layer_1" data-name="Layer 1" viewBox="0 0 251 251"><defs><style>.cls-1,.cls-4{fill:#f2f2f2}.cls-1{stroke:#b3b3b3}.cls-1,.cls-3,.cls-4{stroke-miterlimit:10}.cls-2{fill:#e0bb05}.cls-3{fill:none}.cls-3,.cls-4{stroke:#333;stroke-width:1.5px}.cls-5{fill:#333}</style></defs><title>footer</title><rect width="250" height="250" x=".5" y=".5" class="cls-1" rx="13.7" ry="13.7"/><rect width="185.29" height="51.44" x="33.71" y="165.81" class="cls-2" rx="4.32" ry="4.32"/><rect width="185.29" height="23.94" x="33.71" y="34" class="cls-3" rx="4.32" ry="4.32"/><rect width="185.29" height="98.21" x="33.71" y="62.86" class="cls-4" rx="4.63" ry="4.63"/><rect width="134" height="3.73" x="55" y="182.41" class="cls-5" rx="1.87" ry="1.87" transform="translate(243 367.56) rotate(180)"/><rect width="142" height="3.73" x="55" y="198.41" class="cls-5" rx="1.87" ry="1.87" transform="translate(251 399.56) rotate(180)"/><rect width="121" height="3.73" x="55" y="190.41" class="cls-5" rx="1.87" ry="1.87" transform="translate(230 383.56) rotate(180)"/><rect width="17.49" height="1.14" x="189.77" y="40.59" class="cls-5" rx=".53" ry=".53"/><rect width="17.49" height="1.14" x="189.77" y="45.16" class="cls-5" rx=".53" ry=".53"/><rect width="17.49" height="1.14" x="189.77" y="49.72" class="cls-5" rx=".53" ry=".53"/></svg>